<svg width="24" height="25" viewBox="0 0 24 25" fill="none" xmlns="http://www.w3.org/2000/svg">
<g opacity="0.9" clip-path="url(#clip0_1_1356)">
<path d="M12 10.3181V14.9654H18.4582C18.1746 16.4599 17.3236 17.7254 16.0472 18.5763L19.9417 21.5982C22.2108 19.5037 23.5199 16.4273 23.5199 12.7728C23.5199 11.9219 23.4436 11.1036 23.3017 10.3182L12 10.3181Z" fill="#007BFF"/>
<path d="M5.27461 14.7839L4.39625 15.4563L1.28711 17.8781C3.26165 21.7944 7.30862 24.4999 11.9995 24.4999C15.2394 24.4999 17.9557 23.4308 19.9412 21.5981L16.0467 18.5763C14.9776 19.2963 13.614 19.7327 11.9995 19.7327C8.87951 19.7327 6.22868 17.6273 5.27952 14.7909L5.27461 14.7839Z" fill="#34A853"/>
<path d="M1.28718 7.12183C0.469042 8.73631 0 10.5581 0 12.4999C0 14.4417 0.469042 16.2636 1.28718 17.878C1.28718 17.8889 5.27997 14.7799 5.27997 14.7799C5.03998 14.0599 4.89812 13.2963 4.89812 12.4998C4.89812 11.7033 5.03998 10.9398 5.27997 10.2198L1.28718 7.12183Z" fill="#FBBC05"/>
<path d="M11.9997 5.27818C13.767 5.27818 15.3379 5.88907 16.5925 7.06727L20.0288 3.63095C17.9452 1.68917 15.2398 0.5 11.9997 0.5C7.30887 0.5 3.26165 3.19454 1.28711 7.12183L5.27978 10.22C6.22882 7.38362 8.87976 5.27818 11.9997 5.27818Z" fill="#EA4335"/>
</g>
<defs>
<clipPath id="clip0_1_1356">
<rect width="24" height="24" fill="white" transform="translate(0 0.5)"/>
</clipPath>
</defs>
</svg>
